<svg width="31" height="21" viewBox="0 0 31 21" fill="none" xmlns="http://www.w3.org/2000/svg">
<path fill-rule="evenodd" clip-rule="evenodd" d="M0.1875 10.5002C0.1875 10.2101 0.302734 9.93188 0.507852 9.72676C0.71297 9.52165 0.991169 9.40641 1.28125 9.40641H27.0784L20.1944 2.52454C19.989 2.31916 19.8736 2.04061 19.8736 1.75016C19.8736 1.45971 19.989 1.18116 20.1944 0.975786C20.3998 0.770409 20.6783 0.655029 20.9688 0.655029C21.2592 0.655029 21.5377 0.770409 21.7431 0.975786L30.4931 9.72579C30.595 9.82738 30.6758 9.94808 30.7309 10.081C30.7861 10.2138 30.8145 10.3563 30.8145 10.5002C30.8145 10.644 30.7861 10.7865 30.7309 10.9194C30.6758 11.0522 30.595 11.1729 30.4931 11.2745L21.7431 20.0245C21.5377 20.2299 21.2592 20.3453 20.9688 20.3453C20.6783 20.3453 20.3998 20.2299 20.1944 20.0245C19.989 19.8192 19.8736 19.5406 19.8736 19.2502C19.8736 18.9597 19.989 18.6812 20.1944 18.4758L27.0784 11.5939H1.28125C0.991169 11.5939 0.71297 11.4787 0.507852 11.2736C0.302734 11.0684 0.1875 10.7902 0.1875 10.5002Z" fill="#FDF7FF"/>
</svg>
