<svg width="41" height="40" viewBox="0 0 41 40" fill="none" xmlns="http://www.w3.org/2000/svg">
<path d="M20.8 0C21.4631 0 22.099 0.263393 22.5678 0.732234C23.0367 1.20107 23.3 1.83696 23.3 2.5V17.5H38.3C38.9631 17.5 39.599 17.7634 40.0678 18.2322C40.5367 18.7011 40.8 19.337 40.8 20C40.8 20.663 40.5367 21.2989 40.0678 21.7678C39.599 22.2366 38.9631 22.5 38.3 22.5H23.3V37.5C23.3 38.163 23.0367 38.7989 22.5678 39.2678C22.099 39.7366 21.4631 40 20.8 40C20.137 40 19.5011 39.7366 19.0323 39.2678C18.5634 38.7989 18.3 38.163 18.3 37.5V22.5H3.30005C2.63701 22.5 2.00112 22.2366 1.53228 21.7678C1.06344 21.2989 0.800049 20.663 0.800049 20C0.800049 19.337 1.06344 18.7011 1.53228 18.2322C2.00112 17.7634 2.63701 17.5 3.30005 17.5H18.3V2.5C18.3 1.83696 18.5634 1.20107 19.0323 0.732234C19.5011 0.263393 20.137 0 20.8 0Z" fill="#75687E"/>
</svg>
