<svg width="20" height="20" viewBox="0 0 20 20" fill="none" xmlns="http://www.w3.org/2000/svg">
<g clip-path="url(#clip0_206_394)">
<path fill-rule="evenodd" clip-rule="evenodd" d="M10.795 4.375C10.795 4.20924 10.7292 4.05027 10.6119 3.93306C10.4947 3.81585 10.3358 3.75 10.17 3.75H1.875C1.37772 3.75 0.900805 3.94754 0.549175 4.29917C0.197544 4.65081 0 5.12772 0 5.625L0 18.125C0 18.6223 0.197544 19.0992 0.549175 19.4508C0.900805 19.8025 1.37772 20 1.875 20H14.375C14.8723 20 15.3492 19.8025 15.7008 19.4508C16.0525 19.0992 16.25 18.6223 16.25 18.125V9.83C16.25 9.66424 16.1842 9.50527 16.0669 9.38806C15.9497 9.27085 15.7908 9.205 15.625 9.205C15.4592 9.205 15.3003 9.27085 15.1831 9.38806C15.0658 9.50527 15 9.66424 15 9.83V18.125C15 18.2908 14.9342 18.4497 14.8169 18.5669C14.6997 18.6842 14.5408 18.75 14.375 18.75H1.875C1.70924 18.75 1.55027 18.6842 1.43306 18.5669C1.31585 18.4497 1.25 18.2908 1.25 18.125V5.625C1.25 5.45924 1.31585 5.30027 1.43306 5.18306C1.55027 5.06585 1.70924 5 1.875 5H10.17C10.3358 5 10.4947 4.93415 10.6119 4.81694C10.7292 4.69973 10.795 4.54076 10.795 4.375Z" fill="black"/>
<path fill-rule="evenodd" clip-rule="evenodd" d="M20.0001 0.625C20.0001 0.45924 19.9342 0.300269 19.817 0.183058C19.6998 0.065848 19.5408 0 19.3751 0L13.1251 0C12.9593 0 12.8003 0.065848 12.6831 0.183058C12.5659 0.300269 12.5001 0.45924 12.5001 0.625C12.5001 0.79076 12.5659 0.949732 12.6831 1.06694C12.8003 1.18415 12.9593 1.25 13.1251 1.25H17.8663L7.68256 11.4325C7.62445 11.4906 7.57835 11.5596 7.5469 11.6355C7.51545 11.7114 7.49927 11.7928 7.49927 11.875C7.49927 11.9572 7.51545 12.0386 7.5469 12.1145C7.57835 12.1904 7.62445 12.2594 7.68256 12.3175C7.74067 12.3756 7.80965 12.4217 7.88558 12.4532C7.9615 12.4846 8.04288 12.5008 8.12506 12.5008C8.20724 12.5008 8.28861 12.4846 8.36454 12.4532C8.44046 12.4217 8.50945 12.3756 8.56756 12.3175L18.7501 2.13375V6.875C18.7501 7.04076 18.8159 7.19973 18.9331 7.31694C19.0503 7.43415 19.2093 7.5 19.3751 7.5C19.5408 7.5 19.6998 7.43415 19.817 7.31694C19.9342 7.19973 20.0001 7.04076 20.0001 6.875V0.625Z" fill="black"/>
</g>
<defs>
<clipPath id="clip0_206_394">
<rect width="20" height="20" fill="white"/>
</clipPath>
</defs>
</svg>
